# xmcd
#
# Track frame offsets:
#	150
#	12537
#	27485
#	40562
#	50302
#	60485
#	69882
#	81130
#	93822
#	107217
#	122985
#	133800
#	148390
#	161395
#	175512
#	188160
#	200712
#	213610
#	227945
#	238905
#	250137
#	262797
#	278872
#	288292
#	313577
#
# Disc length: 4440 seconds
#
# Revision: 1
# Processed by: cddbd v1.5.1PL0 Copyright (c) Steve Scherf et al.
# Submitted via: audiograbber 1.83.01
#
DISCID=6b115619
DTITLE=Chitãozinho and Xororó - 2 em 1 Vol. 1
DYEAR=1900
DGENRE=
TTITLE0=Doce Amada
TTITLE1=Uma Casa de Caboclo
TTITLE2=Sonhos Perdidos
TTITLE3=Mendigo por sua Culpa
TTITLE4=Professora do Desprezo
TTITLE5=Rosa Branca
TTITLE6=Minha Infância
TTITLE7=Cabloco de Fato
TTITLE8=A Saudade Continua
TTITLE9=João Ninguém
TTITLE10=Coceira de Canela
TTITLE11=Manhã de Sol
TTITLE12=Querida
TTITLE13=Pra Sempre Comigo
TTITLE14=O Homem do Campo
TTITLE15=Amor da Minha Vida
TTITLE16=Caminhando Pela Vida
TTITLE17=O Comício Terminou 
TTITLE18=A Flor da Noite
TTITLE19=O Pobre e a Rosa
TTITLE20=Aquelas Águas Serenas
TTITLE21=Adeus Amor
TTITLE22=O Tempo Trouxe a Saudade
TTITLE23=Sozinho na Estrada
TTITLE24=Faixa de Dados
EXTD=
EXTT0=
EXTT1=
EXTT2=
EXTT3=
EXTT4=
EXTT5=
EXTT6=
EXTT7=
EXTT8=
EXTT9=
EXTT10=
EXTT11=
EXTT12=
EXTT13=
EXTT14=
EXTT15=
EXTT16=
EXTT17=
EXTT18=
EXTT19=
EXTT20=
EXTT21=
EXTT22=
EXTT23=
EXTT24=
PLAYORDER=
